<?xml version="1.0" encoding="utf-8"?>
<!-- Generator: Adobe Illustrator 24.3.0, SVG Export Plug-In . SVG Version: 6.00 Build 0)  -->
<svg version="1.1" id="Capa_1" focusable="false" xmlns="http://www.w3.org/2000/svg" xmlns:xlink="http://www.w3.org/1999/xlink"
	 x="0px" y="0px" viewBox="0 0 384 512" style="enable-background:new 0 0 384 512;" xml:space="preserve">
<style type="text/css">
	.st0{fill:#FFFFFF;}
</style>
<path class="st0" d="M224,136V0H24C10.7,0,0,10.7,0,24v464c0,13.3,10.7,24,24,24h336c13.3,0,24-10.7,24-24V160H248
	C234.8,160,224,149.2,224,136z M300.5,347.4L204,443.1c-6.6,6.6-17.4,6.6-24,0l-96.4-95.7c-10.2-10.1-3-27.4,11.2-27.4H160v-80
	c0-8.8,7.2-16,16-16h32c8.8,0,16,7.2,16,16v80h65.2C303.5,320,310.6,337.3,300.5,347.4L300.5,347.4z M377,105L279.1,7
	c-4.5-4.5-10.6-7-17-7H256v128h128v-6.1C384,115.6,381.5,109.5,377,105z"/>
</svg>
