<?xml version="1.0" encoding="utf-8"?>
<!-- Generator: Adobe Illustrator 24.3.0, SVG Export Plug-In . SVG Version: 6.00 Build 0)  -->
<svg version="1.1" id="Capa_1" xmlns="http://www.w3.org/2000/svg" xmlns:xlink="http://www.w3.org/1999/xlink" x="0px" y="0px"
	 viewBox="0 0 2079 2500" style="enable-background:new 0 0 2079 2500;" xml:space="preserve">
<style type="text/css">
	.st0{fill:#FF3E00;}
	.st1{fill:#FFFFFF;}
</style>
<path class="st0" d="M1946.3,330.8C1714-1.5,1255.3-100,923.6,111.3L341.1,482.4c-39.2,24.6-75.7,53.2-109,85.4
	c-33.3,32.2-63.1,67.7-89.1,106.1S95.3,753.2,77.8,796c-17.4,42.9-30.4,87.4-38.6,133c-6.9,38.2-10.6,76.9-11.1,115.7
	c-0.5,38.9,2.2,77.7,8.1,116c5.9,38.4,14.9,76.2,27,113.1c12.1,36.9,27.2,72.7,45.3,107.1c-12.4,18.8-23.8,38.3-34.3,58.3
	c-10.5,20-19.9,40.5-28.3,61.5c-8.4,20.9-15.7,42.3-21.9,64c-6.2,21.7-11.3,43.7-15.3,65.9C-8.1,1724-5.9,1819.7,15,1912.2
	c10.4,46.1,25.4,91.1,44.8,134.2c19.4,43.1,42.9,84.3,70.5,122.8c232.3,332.3,691,430.7,1022.7,219.5l582.5-369.6
	c39.2-24.7,75.7-53.3,108.9-85.5c33.3-32.2,63.1-67.7,89-106.1c25.9-38.3,47.8-79.2,65.3-122.1c17.5-42.8,30.5-87.4,38.8-132.9
	c6.9-38.2,10.6-76.9,11.1-115.7c0.5-38.8-2.2-77.6-8.1-116c-5.9-38.3-14.9-76.2-27.1-113c-12.1-36.8-27.3-72.7-45.3-107
	c12.4-18.8,23.9-38.3,34.3-58.3c10.4-20,19.9-40.5,28.3-61.5c8.4-20.9,15.7-42.3,22-64c6.2-21.7,11.4-43.6,15.4-65.8
	c8.3-46.6,11.9-93.9,10.8-141.1c-1.1-47.3-6.9-94.3-17.3-140.5c-10.4-46.1-25.4-91.1-44.8-134.2c-19.3-43.2-42.9-84.3-70.4-122.8"/>
<path class="st1" d="M866.7,2201.4c-45.6,11.8-92.7,16.7-139.8,14.3c-47-2.4-93.4-11.9-137.6-28.3c-44.2-16.4-85.6-39.4-122.8-68.2
	c-37.2-28.9-69.8-63.2-96.6-101.9c-16.6-23.2-30.8-47.9-42.4-73.8c-11.6-25.9-20.7-53-26.9-80.7c-6.2-27.8-9.7-56-10.3-84.5
	c-0.6-28.4,1.6-56.8,6.6-84.8c0.8-4.5,1.7-9.1,2.7-13.6c1-4.5,2-9.1,3.2-13.5c1.1-4.5,2.4-9,3.7-13.4c1.3-4.4,2.7-8.8,4.2-13.2
	l11-33.5l29.9,22.3c17.2,12.5,34.8,24.3,53,35.3c18.2,11.1,36.8,21.3,55.8,30.8c19,9.5,38.4,18.2,58.2,26
	c19.7,7.8,39.8,14.8,60.2,20.9l22.3,6.5l-2,22.3c-1.1,15.2,0.5,30.5,4.7,45.1c2,7.3,4.8,14.4,8.1,21.3c3.3,6.8,7.2,13.4,11.6,19.6
	c8.1,11.6,17.9,22,29.2,30.7c11.2,8.7,23.7,15.6,37,20.5c13.3,4.9,27.2,7.8,41.4,8.5c14.1,0.8,28.3-0.7,42.1-4.3
	c3.2-0.8,6.3-1.8,9.3-2.9c3.1-1.1,6.1-2.3,9.1-3.6c3-1.3,5.9-2.7,8.8-4.3c2.9-1.5,5.7-3.1,8.4-4.9l581.6-371.1
	c7.1-4.5,13.8-9.7,19.8-15.5c6.1-5.9,11.4-12.4,16.1-19.3c4.7-7,8.6-14.4,11.8-22.2c3.1-7.8,5.5-15.9,7-24.2
	c1.5-8.5,2.1-17,1.9-25.6c-0.2-8.6-1.3-17.1-3.2-25.5c-1.9-8.3-4.6-16.5-8.2-24.3c-3.5-7.8-7.8-15.2-12.9-22.2
	c-8.1-11.6-17.9-21.9-29.1-30.6c-11.2-8.7-23.7-15.6-37-20.5c-13.3-4.9-27.3-7.8-41.4-8.5c-14.2-0.7-28.4,0.8-42.1,4.3
	c-3.1,0.8-6.3,1.8-9.3,2.9c-3.1,1.1-6.1,2.3-9.1,3.5c-3,1.3-5.9,2.8-8.8,4.3c-2.9,1.5-5.7,3.2-8.5,4.9L1014.1,1448
	c-9.1,5.8-18.4,11.2-28,16.3c-9.6,5-19.2,9.8-29.1,14.1c-9.9,4.3-19.9,8.3-30.1,11.9c-10.2,3.6-20.5,6.8-30.9,9.6
	c-45.5,11.8-92.6,16.5-139.5,14.1c-46.9-2.4-93.2-12-137.3-28.3c-44.1-16.4-85.4-39.4-122.5-68.1s-69.7-63.1-96.5-101.7
	c-16.5-23.2-30.6-47.9-42.2-73.9c-11.6-26-20.6-53-26.8-80.7c-6.2-27.8-9.6-56-10.2-84.5c-0.6-28.4,1.6-56.8,6.6-84.8
	c9.9-55,31.1-107.4,62.3-153.8c31.3-46.4,71.9-85.7,119.2-115.5l583.4-371.1c9.1-5.8,18.3-11.2,27.8-16.3c9.5-5,19.2-9.8,29-14.1
	c9.8-4.3,19.8-8.3,30-11.9c10.1-3.6,20.4-6.8,30.8-9.6c45.6-11.8,92.7-16.7,139.7-14.3c47,2.4,93.4,11.9,137.5,28.3
	c44.2,16.4,85.5,39.4,122.7,68.2c37.2,28.9,69.7,63.3,96.6,101.9c16.5,23.1,30.8,47.8,42.4,73.8c11.6,26,20.7,53,27,80.7
	c6.3,27.8,9.8,56,10.4,84.5c0.7,28.4-1.5,56.8-6.5,84.8c-0.9,4.6-1.8,9.2-2.8,13.7c-1,4.5-2.1,9.1-3.3,13.6
	c-1.1,4.5-2.4,9.1-3.7,13.5c-1.3,4.5-2.6,9-4.1,13.4l-11.1,33.5l-29.7-22.3c-17.2-12.6-34.9-24.5-53.1-35.6
	c-18.2-11.1-36.9-21.4-56-31c-38.2-19-77.9-34.8-118.7-47.2l-22.4-6.5l2-22.3c0.6-7.6,0.6-15.3-0.1-22.9c-0.7-7.6-2-15.1-4-22.5
	c-2-7.3-4.7-14.6-8-21.4c-3.3-6.9-7.1-13.5-11.6-19.8c-8.1-11.4-18-21.6-29.2-30c-11.2-8.5-23.6-15.3-36.8-20
	c-26.6-9.6-55.4-10.9-82.8-3.7c-3.2,0.8-6.3,1.8-9.3,2.8c-3.1,1.1-6.1,2.3-9.1,3.6c-3,1.3-5.9,2.8-8.8,4.3c-2.9,1.5-5.7,3.2-8.5,4.9
	L686,976.1c-7.1,4.5-13.7,9.7-19.7,15.5c-6,5.8-11.4,12.3-16.1,19.2c-4.7,7-8.6,14.4-11.8,22.2c-3.2,7.8-5.5,15.9-7,24.1
	c-1.5,8.5-2.1,17.1-1.9,25.7c0.5,17.2,4.4,34.1,11.4,49.9c3.5,7.8,7.8,15.3,12.8,22.3c8.1,11.5,17.8,21.8,29,30.4
	c11.1,8.6,23.5,15.5,36.7,20.4c26.5,9.9,55.4,11.4,82.9,4.5c3.1-0.9,6.3-1.8,9.3-2.9c3-1.1,6.1-2.3,9.1-3.6c3-1.3,5.9-2.7,8.8-4.3
	c2.9-1.5,5.7-3.1,8.5-4.9l223.3-141.5c9.1-5.8,18.4-11.4,28-16.4c9.5-5.1,19.2-9.8,29.2-14.2c9.9-4.3,20-8.3,30.2-11.9
	c10.2-3.6,20.6-6.8,31-9.5c45.6-11.9,92.6-16.7,139.7-14.4c47,2.4,93.4,11.9,137.5,28.3c44.1,16.4,85.5,39.4,122.7,68.2
	c37.2,28.8,69.8,63.2,96.6,101.9c16.5,23.2,30.7,47.9,42.4,73.8c11.6,25.9,20.7,53,27,80.7c6.3,27.7,9.8,56,10.4,84.4
	c0.7,28.5-1.5,56.9-6.5,84.8c-4.9,27.5-12.7,54.3-23.2,80.2c-10.5,25.9-23.6,50.5-39.2,73.7c-15.6,23.1-33.5,44.6-53.5,64
	c-20,19.4-42,36.7-65.6,51.5L985,2149.3c-9.1,5.8-18.5,11.3-28,16.4c-9.6,5.1-19.3,9.8-29.2,14.1c-9.9,4.4-19.9,8.3-30.2,11.9
	C887.4,2195.4,877.1,2198.6,866.7,2201.4"/>
</svg>
